<?xml version="1.0" encoding="UTF-8" standalone="no"?>
<svg
   xmlns:dc="http://purl.org/dc/elements/1.1/"
   xmlns:cc="http://creativecommons.org/ns#"
   xmlns:rdf="http://www.w3.org/1999/02/22-rdf-syntax-ns#"
   xmlns:svg="http://www.w3.org/2000/svg"
   xmlns="http://www.w3.org/2000/svg"
   id="svg8"
   version="1.1"
   viewBox="0 0 18.297016 4.7624998"
   height="4.7624998mm"
   width="18.297016mm">
  <defs
     id="defs2" />
  <metadata
     id="metadata5">
    <rdf:RDF>
      <cc:Work
         rdf:about="">
        <dc:format>image/svg+xml</dc:format>
        <dc:type
           rdf:resource="http://purl.org/dc/dcmitype/StillImage" />
        <dc:title></dc:title>
      </cc:Work>
    </rdf:RDF>
  </metadata>
  <g
     transform="translate(-73.704331,-168.3747)"
     id="layer1">
    <g
       transform="matrix(0.04032258,0,0,0.04032258,73.704331,168.3747)"
       id="g4549">
      <path
         style="fill:#ff0000;fill-opacity:1"
         d="m 202,85.26 -4.89,15.08 a 1.1,1.1 0 0 1 -1.12,0.82 h -11.87 c -0.71,0 -0.92,-0.41 -0.81,-1 L 203.7,41.31 a 18.89,18.89 0 0 0 1,-6.22 0.68,0.68 0 0 1 0.61,-0.71 h 16.31 c 0.51,0 0.71,0.1 0.82,0.61 l 23.14,65.25 c 0.2,0.51 0.1,0.92 -0.51,0.92 h -13.23 a 1,1 0 0 1 -1.13,-0.71 l -5.2,-15.19 z m 19.78,-12.75 c -2,-6.73 -6.12,-19.06 -8.05,-26.3 h -0.1 c -1.64,6.83 -5.31,18 -8,26.3 z"
         transform="translate(-6.07,-6.51)"
         id="path4518" />
      <path
         style="fill:#ff0000;fill-opacity:1"
         d="m 247.21,76.28 c 0,-14.58 10.91,-26.81 29.57,-26.81 0.81,0 1.83,0.1 3.36,0.2 V 29.59 a 0.64,0.64 0 0 1 0.71,-0.71 h 12.85 c 0.51,0 0.61,0.2 0.61,0.61 v 60.25 a 56.68,56.68 0 0 0 0.41,7.44 c 0,0.51 -0.1,0.72 -0.71,0.92 a 51.21,51.21 0 0 1 -20.09,4.08 c -15.09,0 -26.71,-8.56 -26.71,-25.9 z m 32.93,-14.47 a 10.53,10.53 0 0 0 -3.77,-0.51 c -7.85,0 -14.58,4.79 -14.58,14.27 0,10.09 5.81,14.48 13.56,14.48 a 14.38,14.38 0 0 0 4.79,-0.61 z"
         transform="translate(-6.07,-6.51)"
         id="path4520" />
      <path
         style="fill:#ff0000;fill-opacity:1"
         d="m 352.7,75.57 c 0,16 -10.4,26.61 -25.08,26.61 -17.44,0 -25.18,-13.15 -25.18,-26.3 0,-14.48 9.68,-26.41 25.38,-26.41 16.42,0 24.88,12.34 24.88,26.1 z m -35.89,0.1 c 0,9 4.18,14.68 11,14.68 5.92,0 10.4,-5.09 10.4,-14.47 0,-8 -3.26,-14.58 -11,-14.58 -5.91,0 -10.4,5.3 -10.4,14.37 z"
         transform="translate(-6.07,-6.51)"
         id="path4522" />
      <path
         style="fill:#ff0000;fill-opacity:1"
         d="m 374.13,28.88 c 0.81,0 1,0.1 1,0.81 v 20.9 a 32.93,32.93 0 0 1 8.56,-1.12 c 15,0 24.47,10.6 24.47,24.26 0,19.07 -15.09,28.45 -30.58,28.45 a 53.11,53.11 0 0 1 -16,-2.35 1.18,1.18 0 0 1 -0.61,-1 V 29.59 c 0,-0.51 0.2,-0.71 0.71,-0.71 z m 7,32.62 a 20.49,20.49 0 0 0 -6,0.82 V 90 a 16.11,16.11 0 0 0 3.77,0.4 c 7.75,0 14.78,-4.69 14.78,-15.29 C 393.7,65.78 388.3,61.5 381.16,61.5 Z"
         transform="translate(-6.07,-6.51)"
         id="path4524" />
      <path
         style="fill:#ff0000;fill-opacity:1"
         d="m 428.11,79.55 c 0.51,5.81 4.59,10.6 14.58,10.6 a 31.41,31.41 0 0 0 12.54,-2.35 c 0.31,-0.2 0.61,-0.1 0.61,0.51 V 98 c 0,0.71 -0.2,1 -0.71,1.22 -4.08,1.94 -8.56,3 -15.6,3 -19.17,0 -25.89,-13.15 -25.89,-25.79 0,-14.07 8.66,-26.92 24.67,-26.92 15.39,0 21.51,11.93 21.51,22 a 32.37,32.37 0 0 1 -0.51,6.83 0.88,0.88 0 0 1 -0.82,0.82 95.25,95.25 0 0 1 -10.5,0.41 z m 13.26,-9.89 a 32.77,32.77 0 0 0 5.09,-0.21 v -0.71 a 8.29,8.29 0 0 0 -8.66,-8.06 c -6.42,0 -9.18,4.8 -9.79,9 z"
         transform="translate(-6.07,-6.51)"
         id="path4526" />
      <polygon
         style="fill:#ff0000;fill-opacity:1"
         points="133.46,118.11 84.13,0 133.46,0 "
         id="polygon4528" />
      <polygon
         style="fill:#ff0000;fill-opacity:1"
         points="0,118.11 49.37,0 0,0 "
         id="polygon4530" />
      <polygon
         style="fill:#ff0000;fill-opacity:1"
         points="68.18,94.36 45.18,94.36 66.75,43.53 98.18,118.11 77.58,118.11 "
         id="polygon4532" />
    </g>
  </g>
</svg>
